<svg width="64" height="64" viewBox="0 0 300 161" fill="none" xmlns="http://www.w3.org/2000/svg">
<g clip-path="url(#clip0)">
<path d="M147.108 93.7804H112.375L112.006 80.7573C111.99 80.1928 112.075 79.6307 112.254 79.1098C112.434 78.589 112.703 78.1217 113.045 77.7401C113.386 77.3585 113.792 77.0716 114.233 76.8994C114.674 76.7271 115.14 76.6734 115.6 76.742L135.813 79.7603H135.815C138.812 79.7701 141.683 81.228 143.8 83.8146C145.917 86.4012 147.106 89.9055 147.108 93.5598V93.7804Z" fill="#6C63FF"/>
<path d="M131.627 47.5852H107.402C107.08 47.5851 106.761 47.6624 106.463 47.8127C106.166 47.963 105.895 48.1834 105.667 48.4612C105.44 48.739 105.259 49.0688 105.136 49.4318C105.012 49.7948 104.949 50.1839 104.949 50.5768V80.1185C104.949 80.5114 105.012 80.9004 105.136 81.2634C105.259 81.6264 105.44 81.9563 105.667 82.2341C105.895 82.5119 106.166 82.7322 106.463 82.8825C106.761 83.0329 107.08 83.1102 107.402 83.1101H131.627C131.95 83.1102 132.269 83.0329 132.566 82.8826C132.864 82.7323 133.135 82.5119 133.362 82.2341C133.59 81.9563 133.771 81.6264 133.894 81.2634C134.017 80.9004 134.081 80.5114 134.081 80.1185V50.5768C134.081 50.1839 134.017 49.7948 133.894 49.4318C133.771 49.0688 133.59 48.739 133.362 48.4612C133.135 48.1834 132.864 47.963 132.566 47.8127C132.269 47.6624 131.95 47.5851 131.627 47.5852V47.5852Z" fill="#CCCCCC"/>
<path d="M126.171 69.6754L114.734 72.3916C114.055 72.5518 113.352 72.3772 112.779 71.9062C112.206 71.4352 111.81 70.7062 111.677 69.8792L110.798 64.3735C110.666 63.5461 110.81 62.689 111.196 61.9902C111.582 61.2914 112.18 60.808 112.858 60.6459L124.296 57.9298C124.974 57.7696 125.677 57.9442 126.25 58.4152C126.823 58.8862 127.22 59.6152 127.352 60.4421L128.232 65.9479C128.363 66.7753 128.22 67.6324 127.834 68.3312C127.447 69.03 126.85 69.5134 126.171 69.6754Z" fill="#3F3D56"/>
<path d="M123.884 63.1709L115.155 65.2437C114.995 65.2817 114.83 65.2407 114.695 65.1298C114.56 65.019 114.467 64.8473 114.436 64.6526C114.405 64.4579 114.438 64.2561 114.529 64.0916C114.62 63.9272 114.761 63.8135 114.92 63.7755L123.649 61.7027C123.809 61.6648 123.974 61.7057 124.109 61.8166C124.244 61.9275 124.337 62.0991 124.368 62.2938C124.4 62.4885 124.366 62.6903 124.275 62.8548C124.184 63.0193 124.043 63.133 123.884 63.1709V63.1709Z" fill="white"/>
<path d="M122.187 66.2406L117.672 67.3128C117.512 67.3507 117.347 67.3097 117.212 67.1988C117.077 67.088 116.984 66.9163 116.953 66.7216C116.922 66.5269 116.955 66.3251 117.046 66.1606C117.137 65.9962 117.278 65.8825 117.438 65.8445L121.952 64.7724C122.031 64.7536 122.113 64.754 122.192 64.7735C122.271 64.7931 122.346 64.8314 122.412 64.8863C122.479 64.9412 122.536 65.0116 122.581 65.0935C122.625 65.1753 122.656 65.2671 122.672 65.3635C122.687 65.4599 122.687 65.5591 122.671 65.6553C122.655 65.7516 122.623 65.843 122.578 65.9245C122.533 66.0059 122.475 66.0757 122.408 66.13C122.341 66.1842 122.266 66.2218 122.187 66.2406Z" fill="white"/>
<path d="M134.081 50.5768V54.5032H104.949V50.5768C104.949 50.1839 105.012 49.7948 105.136 49.4318C105.259 49.0688 105.44 48.739 105.667 48.4612C105.895 48.1834 106.166 47.963 106.463 47.8127C106.761 47.6624 107.08 47.5851 107.402 47.5852H131.627C131.95 47.5851 132.269 47.6624 132.566 47.8127C132.864 47.963 133.134 48.1834 133.362 48.4612C133.59 48.739 133.771 49.0688 133.894 49.4318C134.017 49.7948 134.081 50.1839 134.081 50.5768Z" fill="#B3B3B3"/>
<path d="M192.253 55.7328C192.085 55.0708 191.8 54.4618 191.418 53.9487C191.036 53.4356 190.566 53.0309 190.042 52.7631C189.518 52.4953 188.952 52.3709 188.384 52.3987C187.816 52.4265 187.26 52.6058 186.755 52.924L153.427 38.3422L151.959 48.4953L185.181 59.6362C185.676 60.6351 186.454 61.3781 187.367 61.7244C188.281 62.0707 189.267 61.9963 190.139 61.5151C191.011 61.034 191.708 60.1796 192.097 59.1139C192.487 58.0482 192.543 56.8452 192.253 55.7328V55.7328Z" fill="#FFB8B8"/>
<path opacity="0.2" d="M192.253 55.7328C192.085 55.0708 191.8 54.4618 191.418 53.9487C191.036 53.4356 190.566 53.0309 190.042 52.7631C189.518 52.4953 188.952 52.3709 188.384 52.3987C187.816 52.4265 187.26 52.6058 186.755 52.924L153.427 38.3422L151.959 48.4953L185.181 59.6362C185.676 60.6351 186.454 61.3781 187.367 61.7244C188.281 62.0707 189.267 61.9963 190.139 61.5151C191.011 61.034 191.708 60.1796 192.097 59.1139C192.487 58.0482 192.543 56.8452 192.253 55.7328V55.7328Z" fill="black"/>
<path d="M159.343 40.1923L156.196 50.2188C156.106 50.504 155.967 50.7624 155.788 50.9763C155.61 51.1902 155.395 51.3546 155.159 51.4583C154.924 51.562 154.673 51.6026 154.423 51.5772C154.173 51.5518 153.931 51.4612 153.713 51.3113L146.064 46.0615C144.87 45.4944 143.909 44.373 143.391 42.9432C142.874 41.5134 142.843 39.8917 143.305 38.4339C143.766 36.976 144.683 35.8008 145.854 35.166C147.025 34.5311 148.355 34.4884 149.552 35.0472L158.093 37.3573C158.337 37.4235 158.567 37.5532 158.767 37.7376C158.967 37.922 159.132 38.1567 159.25 38.4257C159.369 38.6948 159.438 38.9918 159.454 39.2967C159.47 39.6015 159.432 39.907 159.343 40.1923V40.1923Z" fill="#6C63FF"/>
<path d="M194.877 65.0167L182.935 71.6362L184.503 78.8343C187.531 92.7343 188.334 107.215 186.869 121.486V121.486L195.601 123.71L202.839 101.203L200.305 75.6079L194.877 65.0167Z" fill="#6C63FF"/>
<path d="M218.309 98.335C210.463 98.335 204.068 105.291 203.758 114.001H232.86C232.55 105.291 226.155 98.335 218.309 98.335Z" fill="#3F3D56"/>
<path d="M212.201 99.8361C211.793 60.5168 193.429 64.1341 193.429 64.1341C193.429 64.1341 193.773 76.3729 193.938 76.7535C205.64 103.752 186.328 135.404 161.745 129.581C161.282 129.472 160.836 129.36 160.409 129.247C157.294 128.454 154.544 126.244 152.718 123.066C150.892 119.889 150.127 115.982 150.579 112.141C153.001 88.4274 140.957 88.847 140.957 88.847H123.345L114.199 78.8092C113.876 78.4549 113.487 78.2024 113.066 78.0739C112.645 77.9453 112.204 77.9446 111.782 78.0718C111.361 78.1989 110.971 78.4502 110.647 78.8034C110.324 79.1567 110.076 79.6012 109.926 80.0982L108.749 83.9927C108.749 83.9927 91.3788 86.1992 92.8264 106.94H98.1966C98.1837 107.53 98.203 108.12 98.2546 108.706L138.333 108.308C140.683 108.285 142.756 110.606 142.766 113.471C142.768 114.169 142.655 114.86 142.434 115.503C142.212 116.146 141.887 116.728 141.476 117.214C141.066 117.7 140.579 118.08 140.046 118.331C139.512 118.583 138.943 118.7 138.371 118.677L131.91 118.414C129.919 129.226 134.805 136.508 140.188 141.086C145.256 145.335 151.27 147.587 157.42 147.54H174.974C197.772 147.54 201.753 124.151 201.753 124.151C213.695 117.973 212.201 99.8361 212.201 99.8361Z" fill="#3F3D56"/>
<path d="M217.223 160.338C228.465 160.338 237.579 149.224 237.579 135.515C237.579 121.805 228.465 110.691 217.223 110.691C205.981 110.691 196.867 121.805 196.867 135.515C196.867 149.224 205.981 160.338 217.223 160.338Z" fill="#3F3D56"/>
<path d="M217.223 141.599C219.979 141.599 222.212 138.875 222.212 135.515C222.212 132.155 219.979 129.431 217.223 129.431C214.468 129.431 212.234 132.155 212.234 135.515C212.234 138.875 214.468 141.599 217.223 141.599Z" fill="white"/>
<path d="M114.449 160.338C127.39 160.338 137.881 147.545 137.881 131.764C137.881 115.983 127.39 103.189 114.449 103.189C101.508 103.189 91.0171 115.983 91.0171 131.764C91.0171 147.545 101.508 160.338 114.449 160.338Z" fill="#3F3D56"/>
<path d="M114.449 138.767C117.621 138.767 120.192 135.632 120.192 131.764C120.192 127.896 117.621 124.76 114.449 124.76C111.277 124.76 108.706 127.896 108.706 131.764C108.706 135.632 111.277 138.767 114.449 138.767Z" fill="white"/>
<path d="M182.969 73.5921L178.672 59.3603C178.448 58.6186 178.346 57.8303 178.372 57.0406C178.398 56.2508 178.551 55.475 178.823 54.7574C179.095 54.0398 179.48 53.3946 179.956 52.8585C180.432 52.3223 180.99 51.9058 181.599 51.6328L193.917 46.1027C194.987 45.6221 196.125 45.4033 197.264 45.4587C198.404 45.5142 199.523 45.8428 200.558 46.4258C201.594 47.0088 202.525 47.8348 203.299 48.8566C204.072 49.8784 204.673 51.0761 205.067 52.3811C205.423 53.5525 205.604 54.7917 205.603 56.0406C205.599 57.6265 205.304 59.1912 204.742 60.6209C204.179 62.0507 203.362 63.3096 202.351 64.3062C201.62 65.0211 200.799 65.5859 199.919 65.9784L182.969 73.5921Z" fill="#3F3D56"/>
<path d="M205.422 56.0406C205.421 57.5941 205.134 59.1276 204.583 60.5283C204.032 61.9289 203.231 63.161 202.237 64.134C200.714 63.6439 199.296 62.755 198.082 61.5291C196.869 60.3032 195.889 58.7698 195.21 57.0353C194.532 55.3008 194.171 53.407 194.154 51.4855C194.136 49.5639 194.462 47.6607 195.108 45.9083C196.35 45.5791 197.636 45.5931 198.872 45.9493C200.108 46.3055 201.263 46.9948 202.252 47.9665C203.242 48.9383 204.04 50.168 204.588 51.5651C205.137 52.9623 205.422 54.4915 205.422 56.0406V56.0406Z" fill="#6C63FF"/>
<path d="M95.9022 109.809C98.7002 109.809 100.968 106.45 100.968 102.307C100.968 98.1634 98.7002 94.8046 95.9022 94.8046C93.1041 94.8046 90.8358 98.1634 90.8358 102.307C90.8358 106.45 93.1041 109.809 95.9022 109.809Z" fill="#6C63FF"/>
<path d="M162.872 128.863H167.309L169.42 114.83L162.872 114.831L162.872 128.863Z" fill="#FFB8B8"/>
<path d="M161.741 127.096L170.478 127.096H170.478C171.209 127.096 171.933 127.271 172.609 127.613C173.285 127.954 173.898 128.454 174.415 129.084C174.932 129.715 175.343 130.464 175.622 131.287C175.902 132.111 176.046 132.994 176.046 133.886V134.106L161.741 134.107L161.741 127.096Z" fill="#2F2E41"/>
<path d="M168.022 123.103C167.971 123.103 167.919 123.1 167.867 123.094L161.727 122.549C161.478 122.521 161.239 122.424 161.026 122.265C160.814 122.106 160.634 121.89 160.501 121.632C160.367 121.375 160.284 121.084 160.258 120.782C160.232 120.48 160.262 120.174 160.348 119.888L168.565 97.3755C168.624 97.1748 168.648 96.9614 168.636 96.7489C168.624 96.5363 168.575 96.3291 168.494 96.1404C168.413 95.9494 168.3 95.7814 168.162 95.6476C168.024 95.5137 167.865 95.417 167.694 95.3638C163.83 94.1321 153.917 90.8525 145.335 87.0152C141.658 85.3711 139.342 82.9952 138.452 79.9535C137.278 75.9434 139.015 72.2863 139.089 72.1329L139.147 72.0126L147.223 72.9077L155.977 73.8158L175.162 86.361C176.769 87.4211 177.99 89.1807 178.582 91.2894C179.173 93.3981 179.091 95.7011 178.353 97.7396L169.508 121.926C169.38 122.277 169.172 122.574 168.908 122.783C168.644 122.992 168.337 123.103 168.022 123.103Z" fill="#2F2E41"/>
<path d="M148.627 28.3675C153.536 28.3675 157.515 23.5148 157.515 17.5286C157.515 11.5425 153.536 6.68979 148.627 6.68979C143.718 6.68979 139.739 11.5425 139.739 17.5286C139.739 23.5148 143.718 28.3675 148.627 28.3675Z" fill="#FFB8B8"/>
<path d="M160.339 130.186H164.776L166.887 116.154L160.339 116.155L160.339 130.186Z" fill="#FFB8B8"/>
<path d="M159.207 128.42L167.945 128.42H167.945C168.676 128.42 169.4 128.595 170.076 128.937C170.751 129.278 171.365 129.778 171.882 130.408C172.399 131.039 172.809 131.787 173.089 132.611C173.369 133.435 173.513 134.318 173.513 135.21V135.43L159.208 135.431L159.207 128.42Z" fill="#2F2E41"/>
<path d="M165.489 124.427C165.437 124.427 165.385 124.424 165.333 124.418L159.194 123.873C158.945 123.845 158.706 123.748 158.493 123.589C158.28 123.43 158.1 123.213 157.967 122.956C157.834 122.699 157.751 122.408 157.725 122.106C157.698 121.804 157.729 121.498 157.815 121.212L166.032 98.6994C166.091 98.4987 166.115 98.2853 166.103 98.0728C166.09 97.8602 166.042 97.653 165.961 97.4643C165.88 97.2733 165.767 97.1054 165.629 96.9715C165.491 96.8377 165.332 96.7409 165.161 96.6877C161.297 95.456 151.383 92.1764 142.801 88.3391C139.125 86.695 136.809 84.3191 135.919 81.2774C134.745 77.2673 136.482 73.6102 136.556 73.4568L136.614 73.3365L144.69 74.2317L153.444 75.1397L172.628 87.6849C174.236 88.745 175.457 90.5047 176.048 92.6133C176.64 94.722 176.558 97.025 175.82 99.0635L166.975 123.25C166.847 123.601 166.639 123.898 166.375 124.107C166.111 124.316 165.804 124.427 165.489 124.427Z" fill="#2F2E41"/>
<path d="M151.368 34.5136L141.959 30.5418C141.959 30.5418 136.052 36.0758 138.89 49.8041C140.371 56.8884 139.94 64.3664 137.659 71.1279C137.385 71.9645 137.068 72.7797 136.712 73.5688C136.712 73.5688 147.206 89.0144 156.977 77.5406L153.177 55.2548C153.177 55.2548 159.148 40.4711 151.368 34.5136Z" fill="#6C63FF"/>
<path d="M149.73 28.7361C148.465 26.4271 147.467 23.2253 148.859 21.0283C150.234 18.8597 152.946 19.1792 155.051 18.2196C157.984 16.8831 159.685 12.6816 159.154 8.91887C158.624 5.15617 156.147 2.03701 153.196 0.760752C150.246 -0.515509 146.918 -0.100439 144.029 1.36925C140.472 3.17846 137.42 6.67825 136.141 11.1116C134.861 15.5449 135.545 20.8679 138.2 24.2755C141.046 27.9287 145.512 28.9023 149.643 28.8432" fill="#2F2E41"/>
<path d="M141.462 9.03963C139.868 10.6221 137.436 9.91923 135.725 8.53043C134.014 7.14162 132.625 5.16405 130.774 4.07518C127.51 2.15554 123.564 3.43166 120.387 5.558C117.211 7.68435 114.395 10.6219 111.04 12.2906C107.684 13.9592 103.402 14.0417 100.862 10.8909C100.236 13.1 100.185 15.4906 100.715 17.7364C101.245 19.9822 102.331 21.9739 103.823 23.4398C105.316 24.9056 107.143 25.7743 109.055 25.9271C110.967 26.08 112.872 25.5097 114.508 24.2939C118.185 21.563 120.216 15.837 124.339 14.3296C126.621 13.4955 129.071 14.1673 131.377 14.895C133.684 15.6226 136.088 16.4088 138.416 15.7894C140.743 15.1699 142.92 12.6194 142.624 9.73702L141.462 9.03963Z" fill="#2F2E41"/>
<path d="M191.812 55.2913C191.578 54.6596 191.233 54.0982 190.802 53.6465C190.371 53.1948 189.864 52.8639 189.317 52.677C188.769 52.4901 188.195 52.4519 187.634 52.5649C187.074 52.6779 186.54 52.9395 186.071 53.3312L151.522 43.8754L151.093 54.1718L185.188 60.2289C185.78 61.1458 186.627 61.7661 187.569 61.9723C188.511 62.1785 189.482 61.9562 190.298 61.3476C191.115 60.7389 191.72 59.7863 191.999 58.6701C192.278 57.5539 192.211 56.3517 191.812 55.2913V55.2913Z" fill="#FFB8B8"/>
<path d="M157.58 44.8213L155.471 55.2447C155.411 55.5412 155.299 55.8186 155.144 56.0578C154.988 56.2969 154.792 56.4923 154.568 56.6307C154.345 56.769 154.1 56.8471 153.849 56.8594C153.599 56.8718 153.35 56.8183 153.118 56.7025L144.996 52.6436C143.753 52.2614 142.685 51.2934 142.026 49.952C141.368 48.6106 141.172 47.0053 141.483 45.4884C141.794 43.9715 142.585 42.6668 143.684 41.8607C144.782 41.0547 146.098 40.813 147.343 41.1887L156.053 42.196C156.302 42.2249 156.543 42.3191 156.76 42.472C156.977 42.6249 157.164 42.833 157.309 43.0821C157.454 43.3313 157.553 43.6156 157.6 43.9157C157.647 44.2158 157.64 44.5247 157.58 44.8212V44.8213Z" fill="#6C63FF"/>
<path d="M187.82 63.4721C189.219 63.4721 190.354 62.0891 190.354 60.383C190.354 58.6769 189.219 57.2939 187.82 57.2939C186.421 57.2939 185.287 58.6769 185.287 60.383C185.287 62.0891 186.421 63.4721 187.82 63.4721Z" fill="#6C63FF"/>
</g>
<defs>
<clipPath id="clip0">
<rect width="300" height="161" fill="white"/>
</clipPath>
</defs>
</svg>
